<?xml version="1.0" encoding="utf-8"?>
<!-- Generator: Adobe Illustrator 16.0.4, SVG Export Plug-In . SVG Version: 6.00 Build 0)  -->
<!DOCTYPE svg PUBLIC "-//W3C//DTD SVG 1.1//EN" "http://www.w3.org/Graphics/SVG/1.1/DTD/svg11.dtd">
<svg version="1.1" xmlns="http://www.w3.org/2000/svg" xmlns:xlink="http://www.w3.org/1999/xlink" x="0px" y="0px" width="280px"
	 height="90px" viewBox="0 0 280 90" enable-background="new 0 0 280 90" xml:space="preserve">
<g id="Layer_2">
</g>
<g id="Layer_1">
	<path d="M240.213,80.97c-1.775-1.716-2.663-3.785-2.663-6.21c0-2.424,0.888-4.5,2.663-6.229c1.775-1.727,3.821-2.591,6.138-2.591
		s4.277,0.636,5.886,1.907c0.193,0.193,0.211,0.402,0.056,0.63c-0.158,0.229-0.366,0.259-0.631,0.091
		c-1.488-1.152-3.271-1.729-5.346-1.729c-2.077,0-3.906,0.775-5.49,2.322c-1.585,1.548-2.376,3.414-2.376,5.598
		c0,2.185,0.791,4.051,2.376,5.598c1.584,1.549,3.516,2.323,5.795,2.323c1.825,0,3.504-0.589,5.041-1.765
		c0.215-0.145,0.414-0.102,0.593,0.125c0.182,0.229,0.176,0.439-0.018,0.631c-1.655,1.272-3.527,1.908-5.616,1.908
		C244.124,83.557,241.988,82.687,240.213,80.97z"/>
	<path fill="#CCCCCC" d="M258.96,77.074c-1.866,0.119-3.524,0.889-4.977,2.307c-0.654,0.64-1.173,1.334-1.557,2.081l-0.56-0.187
		v-0.639c0.398-0.669,0.899-1.297,1.505-1.887c1.642-1.596,3.516-2.456,5.619-2.576l0.408,0.477L258.96,77.074z"/>
	<path fill="#CCCCCC" d="M259.399,72.557l-0.408,0.477c-2.104-0.12-3.978-0.98-5.619-2.576c-0.605-0.59-1.106-1.218-1.505-1.887
		v-0.639l0.56-0.187c0.384,0.747,0.902,1.441,1.557,2.081c1.452,1.418,3.11,2.188,4.977,2.307L259.399,72.557z"/>
	
		<line fill="none" stroke="#7F7F7F" stroke-width="0.375" stroke-miterlimit="10" x1="211.104" y1="55.432" x2="223.149" y2="76.432"/>
	<circle opacity="0.2" cx="215.042" cy="79.276" r="1.091"/>
	<circle opacity="0.2" cx="218.643" cy="78.076" r="1.091"/>
	<circle opacity="0.2" cx="219.841" cy="79.276" r="1.091"/>
	<circle opacity="0.2" cx="217.442" cy="79.276" r="1.091"/>
	<circle opacity="0.2" cx="216.242" cy="78.076" r="1.09"/>
	<circle opacity="0.3" cx="217.442" cy="76.877" r="1.091"/>
	<circle opacity="0.2" cx="215.942" cy="60.076" r="1.364"/>
	<circle opacity="0.2" cx="218.942" cy="60.076" r="1.364"/>
	<circle opacity="0.3" cx="217.442" cy="61.576" r="1.364"/>
	<circle opacity="0.3" cx="217.136" cy="69.383" r="1.058"/>
	<circle opacity="0.2" cx="213.542" cy="80.776" r="1.091"/>
	<circle opacity="0.2" cx="218.341" cy="80.776" r="1.091"/>
	<circle opacity="0.2" cx="221.341" cy="80.776" r="1.091"/>
	<circle opacity="0.2" cx="215.942" cy="80.776" r="1.091"/>
	<path fill="none" stroke="#000000" stroke-width="2" d="M166.443,12.848c0.252-0.252,11.153-0.379,11.515-0.379
		c0.358,0,0.565,1.854,0.835,2.105s0.226,2.633,0.226,2.991l-3.519,1.529v41.344l11.617,7.049c0.232,0,0.53-0.011,0.765-0.12
		s0.479-0.199,0.67-0.375c0.188-0.176-0.001-0.319,0.116-0.548c0.117-0.226-0.168-0.403-0.168-0.638V64.44l5,2.095v14.42
		c0,0.36-0.188,1.995-0.457,2.247s-13.376,0.378-13.736,0.378s-12.597-0.126-12.849-0.378s0.042-1.315,0.042-1.676v-5.538l3-2.753
		V22.982l-3-3.031v-5.367C166.5,14.226,166.191,13.1,166.443,12.848z"/>
	<path d="M203.995,47.962c0.15-0.152,0.704,0.038,0.922,0.038h23.902c0.261,0,1.084-0.195,1.292,0.011
		c0.205,0.205,0.271,1.224,0.194,1.452s-0.189,1.193-0.341,1.28l-0.199,1.401l-19.562,25.769L212.885,81h8.438l1.827-5h4.302
		l1.978,3.072c0.217,0,0.401,0.826,0.554,0.975c0.152,0.152,0.229,1.356,0.229,1.573c0,0.219-0.076,1.697-0.229,1.848
		C229.83,83.62,229.231,84,229.015,84h-24.691c-0.521,0-1.823-2.919-1.823-3.44v-0.04c0-0.238,0.605-1.348,0.781-1.478
		l19.739-24.799L220.297,52h-7.274l-1.918,3h-4.342l-2.215-3.367c-0.218,0-0.402-0.783-0.553-0.936
		c-0.152-0.152-0.229-1.15-0.229-1.369C203.767,49.111,203.843,48.114,203.995,47.962z"/>
	<path fill="none" stroke="#000000" stroke-width="2" d="M91.5,57.456v0.431c0,0.721-0.264,1.665-0.766,2.097
		C90.23,60.415,89.608,61,88.889,61H45.474c0.287,6,2.411,10.216,6.372,14.104c3.958,3.887,8.675,5.646,14.147,5.646
		c3.527,0,6.805-0.954,9.828-2.682c3.024-1.729,5.436-4.113,7.236-7.066c0.863-1.441,2.014-1.752,3.455-0.887
		c1.439,1.008,1.729,2.22,0.864,3.658c-2.306,3.673-5.347,6.584-9.126,8.743s-7.866,3.236-12.258,3.236
		c-7.128,0-13.195-2.573-18.197-7.723c-5.006-5.146-7.508-11.376-7.508-18.685c0-7.307,2.502-13.556,7.508-18.738
		c5.002-5.184,10.979-7.775,17.928-7.775c6.946,0,12.841,2.358,17.667,7.072C88.213,44.621,91.5,50.472,91.5,57.456z"/>
	<path fill="none" stroke="#000000" stroke-width="2" d="M106.5,61.129v-0.432c0-0.721,0.012-1.456,0.516-1.89
		c0.504-0.431,0.878-0.808,1.596-0.808h21.697h21.72c-0.287-6-2.413-10.425-6.373-14.312c-3.959-3.888-8.676-5.75-14.148-5.75
		c-3.525,0-6.803,0.903-9.826,2.631c-3.025,1.729-5.438,4.087-7.236,7.04c-0.864,1.441-2.016,1.737-3.457,0.874
		c-1.438-1.008-1.729-2.226-0.864-3.665c2.306-3.672,5.347-6.586,9.126-8.745c3.781-2.159,7.867-3.241,12.258-3.241
		c7.128,0,13.195,2.576,18.199,7.725c5.004,5.146,7.506,11.375,7.506,18.683c0,7.307-2.502,13.557-7.506,18.738
		c-5.004,5.185-10.979,7.775-17.928,7.775c-6.948,0-12.593-2.357-17.419-7.072C109.537,73.963,106.5,68.113,106.5,61.129z"/>
	<path d="M57.5,52c0,1.657-1.343,3-3,3l0,0c-1.657,0-3-1.343-3-3l0,0c0-1.657,1.343-3,3-3l0,0C56.157,49,57.5,50.343,57.5,52
		L57.5,52z"/>
	<path d="M76.5,52c0,1.657-1.343,3-3,3l0,0c-1.657,0-3-1.343-3-3l0,0c0-1.657,1.343-3,3-3l0,0C75.157,49,76.5,50.343,76.5,52
		L76.5,52z"/>
	<line fill="none" stroke="#000000" stroke-width="2" stroke-linecap="round" x1="120.5" y1="70" x2="139.5" y2="70"/>
	<path d="M123.5,52c0,1.657-1.343,3-3,3l0,0c-1.657,0-3-1.343-3-3l0,0c0-1.657,1.343-3,3-3l0,0C122.157,49,123.5,50.343,123.5,52
		L123.5,52z"/>
	<path d="M142.5,52c0,1.657-1.343,3-3,3l0,0c-1.657,0-3-1.343-3-3l0,0c0-1.657,1.343-3,3-3l0,0C141.157,49,142.5,50.343,142.5,52
		L142.5,52z"/>
	<path d="M60.21,10.259c0.718,0,1.33,0.27,1.836,0.81c0.502,0.541,0.756,1.171,0.756,1.892c0,0.72-0.254,1.333-0.756,1.834
		c-0.506,0.505-1.118,0.757-1.836,0.757c-3.313,0-27.815-14.494-42.089,2.214c-1.277,1.494-2.621,4.339-2.621,8.587V33h19.306
		c0.719,0,1.349-0.265,1.891,0.239c0.539,0.504,0.809,0.858,0.809,1.579s-0.27,1.09-0.809,1.63C36.154,36.988,35.524,37,34.806,37
		H15.5v23.263v23.004c0,0.721,0.424,1.333-0.08,1.837s-0.777,0.756-1.497,0.756c-0.721,0-1.713-0.252-2.252-0.756
		c-0.54-0.504-1.171-1.116-1.171-1.837V60.263V37H4.542c-0.721,0-1.335-0.14-1.836-0.681C2.2,35.778,1.95,35.215,1.95,34.494
		c0-0.719,0.25-0.782,0.756-1.286C3.207,32.704,3.821,33,4.542,33H10.5v-6.648c0-5.616,1.893-9.668,3.986-12.313
		C29.668-5.131,55.385,10.259,60.21,10.259z"/>
	
		<line opacity="0.2" fill="none" stroke="#000000" stroke-width="2" stroke-miterlimit="10" x1="174.5" y1="28" x2="171.5" y2="28"/>
	
		<line opacity="0.2" fill="none" stroke="#000000" stroke-width="2" stroke-miterlimit="10" x1="174.5" y1="34" x2="171.5" y2="34"/>
	
		<line opacity="0.2" fill="none" stroke="#000000" stroke-width="2" stroke-miterlimit="10" x1="174.5" y1="40" x2="171.5" y2="40"/>
	
		<line opacity="0.2" fill="none" stroke="#000000" stroke-width="2" stroke-miterlimit="10" x1="174.5" y1="46" x2="171.5" y2="46"/>
	
		<line opacity="0.2" fill="none" stroke="#000000" stroke-width="2" stroke-miterlimit="10" x1="174.5" y1="52" x2="171.5" y2="52"/>
	
		<line opacity="0.2" fill="none" stroke="#000000" stroke-width="2" stroke-miterlimit="10" x1="174.5" y1="58" x2="171.5" y2="58"/>
	
		<line opacity="0.2" fill="none" stroke="#000000" stroke-width="2" stroke-miterlimit="10" x1="177.5" y1="64" x2="171.5" y2="64"/>
	<polyline opacity="0.2" fill="none" stroke="#000000" stroke-width="2" stroke-miterlimit="10" points="174.5,70 171.462,70 
		184.5,70 	"/>
	<polyline opacity="0.2" fill="none" stroke="#000000" stroke-width="2" stroke-miterlimit="10" points="174.5,76 171.462,76 
		184.5,76 	"/>
	<path d="M260.967,68.531c1.62-1.727,3.583-2.591,5.886-2.591c2.305,0,4.271,0.864,5.904,2.591c1.633,1.729,2.448,3.805,2.448,6.229
		c0,2.425-0.815,4.5-2.448,6.229c-1.633,1.728-3.6,2.592-5.904,2.592c-2.303,0-4.266-0.864-5.886-2.592
		c-1.62-1.729-2.429-3.804-2.429-6.229C258.538,72.336,259.347,70.26,260.967,68.531z M261.614,80.357
		c1.453,1.549,3.199,2.323,5.238,2.323c2.041,0,3.793-0.774,5.256-2.323c1.465-1.547,2.197-3.413,2.197-5.598
		c0-2.184-0.732-4.05-2.197-5.598c-1.463-1.547-3.215-2.322-5.256-2.322c-2.039,0-3.785,0.775-5.238,2.322
		c-1.451,1.548-2.177,3.414-2.177,5.598C259.438,76.944,260.163,78.811,261.614,80.357z"/>
</g>
<g id="Layer_3">
</g>
</svg>
