<?xml version="1.0" encoding="utf-8"?>
<!-- Generator: Adobe Illustrator 16.0.4, SVG Export Plug-In . SVG Version: 6.00 Build 0)  -->
<!DOCTYPE svg PUBLIC "-//W3C//DTD SVG 1.1//EN" "http://www.w3.org/Graphics/SVG/1.1/DTD/svg11.dtd">
<?xml-stylesheet type="text/css" href="/build/styles.css" ?> 
<svg version="1.1" xmlns="http://www.w3.org/2000/svg" xmlns:xlink="http://www.w3.org/1999/xlink" x="0px" y="0px" width="185px"
	 height="60px" viewBox="0 0 185 60" enable-background="new 0 0 185 60" xml:space="preserve">

<g id="Layer_1">
	<path d="M159.5,53.857c-1.184-1.144-1.776-2.523-1.776-4.14s0.592-3,1.776-4.152c1.184-1.151,2.548-1.728,4.092-1.728
		s2.852,0.424,3.924,1.271c0.128,0.129,0.14,0.269,0.036,0.42c-0.104,0.152-0.244,0.173-0.42,0.061
		c-0.992-0.769-2.18-1.152-3.564-1.152s-2.604,0.517-3.66,1.548c-1.056,1.032-1.584,2.276-1.584,3.732s0.528,2.7,1.584,3.731
		c1.056,1.032,2.344,1.549,3.864,1.549c1.216,0,2.336-0.393,3.36-1.177c0.144-0.096,0.276-0.067,0.396,0.084
		c0.12,0.152,0.116,0.293-0.012,0.42c-1.104,0.849-2.352,1.272-3.744,1.272C162.108,55.582,160.685,55.002,159.5,53.857z"/>
	<path fill="#CCCCCC" d="M171.998,51.261c-1.244,0.079-2.35,0.592-3.317,1.537c-0.436,0.427-0.783,0.89-1.039,1.388l-0.373-0.124
		v-0.426c0.266-0.446,0.6-0.865,1.003-1.258c1.095-1.064,2.344-1.638,3.746-1.718l0.272,0.317L171.998,51.261z"/>
	<path fill="#CCCCCC" d="M172.292,48.249l-0.272,0.317c-1.402-0.08-2.651-0.653-3.746-1.718c-0.403-0.393-0.737-0.812-1.003-1.258
		v-0.426l0.373-0.124c0.256,0.498,0.603,0.961,1.039,1.388c0.967,0.945,2.073,1.458,3.317,1.537L172.292,48.249z"/>
	
		<line fill="none" stroke="#7F7F7F" stroke-width="0.25" stroke-miterlimit="10" x1="140.095" y1="36.832" x2="148.125" y2="50.832"/>
	<circle opacity="0.2" cx="142.72" cy="52.729" r="0.728"/>
	<circle opacity="0.2" cx="145.12" cy="51.929" r="0.727"/>
	<circle opacity="0.2" cx="145.92" cy="52.729" r="0.727"/>
	<circle opacity="0.2" cx="144.32" cy="52.729" r="0.727"/>
	<circle opacity="0.2" cx="143.52" cy="51.929" r="0.727"/>
	<circle opacity="0.3" cx="144.32" cy="51.129" r="0.727"/>
	<circle opacity="0.2" cx="143.32" cy="39.929" r="0.909"/>
	<circle opacity="0.2" cx="145.32" cy="39.929" r="0.909"/>
	<circle opacity="0.3" cx="144.32" cy="40.929" r="0.909"/>
	<circle opacity="0.3" cx="144.115" cy="46.133" r="0.705"/>
	<circle opacity="0.2" cx="141.72" cy="53.729" r="0.728"/>
	<circle opacity="0.2" cx="144.92" cy="53.729" r="0.727"/>
	<circle opacity="0.2" cx="146.92" cy="53.729" r="0.727"/>
	<circle opacity="0.2" cx="143.32" cy="53.729" r="0.727"/>
	<path fill="none" stroke="#000000" id="lll" d="M110.226,8.442c0.168-0.168,7.483-0.252,7.723-0.252c0.239,0,0.402,1.235,0.582,1.403
		s0.066,1.755,0.066,1.994l-2.43,1.02V40.17l7.841,4.699c0.155,0,0.402-0.007,0.558-0.08c0.156-0.073,0.343-0.133,0.47-0.25
		c0.126-0.117,0.083-0.213,0.161-0.365c0.078-0.15-0.03-0.269-0.03-0.425v-0.911l3,1.396v9.613c0,0.24-0.029,1.33-0.209,1.498
		s-8.87,0.252-9.109,0.252c-0.24,0-8.47-0.084-8.638-0.252s-0.044-0.877-0.044-1.117v-3.692l2-1.835V15.199l-2-2.021V9.601
		C110.167,9.361,110.058,8.61,110.226,8.442z"/>
	<path d="M135.355,31.829c0.101-0.102,0.47,0.003,0.615,0.003h15.934c0.174,0,0.724-0.107,0.861,0.03
		c0.138,0.137,0.181,0.827,0.13,0.979s-0.127,0.801-0.228,0.858l-0.132,0.938l-13.041,17.158l1.787,2.036h5.624l1.218-3h2.868
		l1.318,1.904c0.145,0,0.268,0.479,0.369,0.578c0.102,0.102,0.152,0.868,0.152,1.013c0,0.146-0.051,1.091-0.152,1.191
		c-0.102,0.102-0.5,0.313-0.645,0.313h-16.461c-0.348,0-0.907-1.9-0.907-2.248v-0.026c0-0.159,0.25-0.898,0.367-0.985l13.083-16.389
		l-1.893-1.352h-4.851l-1.278,2h-2.895l-1.477-2.389c-0.145,0-0.268-0.594-0.369-0.695c-0.102-0.102-0.152-0.814-0.152-0.96
		C135.203,32.644,135.253,31.931,135.355,31.829z"/>
	<path fill="none" stroke="#000000" id="firstE" d="M60.167,38.182v0.287c0,0.48-0.079,1.004-0.415,1.292c-0.336,0.287-0.655,0.571-1.134,0.571
		H29.674c0.191,4,1.608,6.917,4.248,9.509c2.639,2.592,5.784,3.817,9.432,3.817c2.351,0,4.536-0.61,6.552-1.762
		c2.016-1.152,3.624-2.729,4.824-4.697c0.576-0.961,1.343-1.161,2.304-0.585c0.959,0.672,1.152,1.483,0.576,2.442
		c-1.537,2.448-3.564,4.391-6.084,5.83s-5.245,2.159-8.172,2.159c-4.752,0-8.796-1.716-12.132-5.148
		c-3.337-3.431-5.004-7.584-5.004-12.456c0-4.871,1.667-9.037,5.004-12.492c3.335-3.456,7.319-5.184,11.952-5.184
		c4.632,0,8.466,1.572,11.682,4.715C58.071,29.625,60.167,33.525,60.167,38.182z"/>
	<path fill="none" stroke="#000000" id="secondE" d="M70.167,40.63v-0.287c0-0.48,0.104-1.077,0.44-1.366c0.336-0.287,0.68-0.645,1.159-0.645
		h14.465h14.479c-0.191-4-1.608-6.844-4.248-9.436c-2.639-2.592-5.784-3.78-9.432-3.78c-2.351,0-4.536,0.629-6.552,1.78
		c-2.016,1.152-3.624,2.738-4.824,4.707c-0.576,0.961-1.343,1.165-2.304,0.589c-0.959-0.672-1.152-1.48-0.576-2.439
		c1.537-2.448,3.564-4.39,6.084-5.829s5.245-2.159,8.172-2.159c4.752,0,8.796,1.717,12.132,5.149
		c3.337,3.431,5.004,7.584,5.004,12.456c0,4.871-1.667,9.037-5.004,12.492c-3.335,3.456-7.319,5.184-11.952,5.184
		c-4.632,0-8.491-1.572-11.708-4.715C72.288,49.187,70.167,45.286,70.167,40.63z"/>
	<path d="M37.667,34.832c0,1.104-0.896,2-2,2l0,0c-1.104,0-2-0.896-2-2l0,0c0-1.104,0.896-2,2-2l0,0
		C36.771,32.832,37.667,33.728,37.667,34.832L37.667,34.832z"/>
	<path d="M50.667,34.832c0,1.104-0.896,2-2,2l0,0c-1.104,0-2-0.896-2-2l0,0c0-1.104,0.896-2,2-2l0,0
		C49.771,32.832,50.667,33.728,50.667,34.832L50.667,34.832z"/>
	<line fill="none" stroke="#000000" stroke-linecap="round" x1="79.667" y1="46.332" x2="92.667" y2="46.332"/>
	<path d="M81.667,34.832c0,1.104-0.896,2-2,2l0,0c-1.104,0-2-0.896-2-2l0,0c0-1.104,0.896-2,2-2l0,0
		C80.771,32.832,81.667,33.728,81.667,34.832L81.667,34.832z"/>
	<path d="M94.667,34.832c0,1.104-0.896,2-2,2l0,0c-1.104,0-2-0.896-2-2l0,0c0-1.104,0.896-2,2-2l0,0
		C93.771,32.832,94.667,33.728,94.667,34.832L94.667,34.832z"/>
	<path d="M39.498,6.717c0.479,0,0.888,0.18,1.224,0.54c0.335,0.36,0.504,0.78,0.504,1.261c0,0.479-0.169,0.889-0.504,1.223
		c-0.336,0.337-0.745,0.505-1.224,0.505c-2.208,0-18.556-9.663-28.072,1.476c-0.851,0.996-1.76,2.893-1.76,5.725v4.387h12.896
		c0.479,0,0.9-0.153,1.26,0.183c0.36,0.336,0.54,0.583,0.54,1.063s-0.18,0.876-0.54,1.236c-0.36,0.36-0.781,0.518-1.26,0.518H9.667
		v15.221v15.336c0,0.48,0.295,0.889-0.041,1.225c-0.336,0.336-0.513,0.504-0.992,0.504c-0.48,0-0.984-0.168-1.344-0.504
		c-0.36-0.336-0.624-0.744-0.624-1.225V40.053V24.832h-4.28c-0.48,0-0.889-0.237-1.224-0.598c-0.336-0.36-0.504-0.809-0.504-1.289
		c0-0.479,0.167-0.58,0.504-0.916c0.335-0.336,0.744-0.197,1.224-0.197h4.28v-4.387c0-3.744,1.107-6.445,2.504-8.209
		C19.292-3.543,36.282,6.717,39.498,6.717z"/>
	<line opacity="0.2" fill="none" stroke="#000000" stroke-miterlimit="10" x1="115.667" y1="18.332" x2="113.667" y2="18.332"/>
	<line opacity="0.2" fill="none" stroke="#000000" stroke-miterlimit="10" x1="115.667" y1="22.332" x2="113.667" y2="22.332"/>
	<line opacity="0.2" fill="none" stroke="#000000" stroke-miterlimit="10" x1="115.667" y1="26.332" x2="113.667" y2="26.332"/>
	<line opacity="0.2" fill="none" stroke="#000000" stroke-miterlimit="10" x1="115.667" y1="30.332" x2="113.667" y2="30.332"/>
	<line opacity="0.2" fill="none" stroke="#000000" stroke-miterlimit="10" x1="115.667" y1="34.332" x2="113.667" y2="34.332"/>
	<line opacity="0.2" fill="none" stroke="#000000" stroke-miterlimit="10" x1="115.667" y1="38.332" x2="113.667" y2="38.332"/>
	<line opacity="0.2" fill="none" stroke="#000000" stroke-miterlimit="10" x1="117.667" y1="42.332" x2="113.667" y2="42.332"/>
	<polyline opacity="0.2" fill="none" stroke="#000000" stroke-miterlimit="10" points="115.667,46.332 113.667,46.332 
		122.667,46.332 	"/>
	<polyline opacity="0.2" fill="none" stroke="#000000" stroke-miterlimit="10" points="115.667,50.332 113.667,50.332 
		122.667,50.332 	"/>
	<path d="M173.336,45.565c1.08-1.151,2.388-1.728,3.924-1.728c1.536,0,2.848,0.576,3.936,1.728c1.088,1.152,1.632,2.536,1.632,4.152
		s-0.544,3-1.632,4.152c-1.088,1.151-2.4,1.728-3.936,1.728c-1.536,0-2.844-0.576-3.924-1.728c-1.08-1.152-1.62-2.536-1.62-4.152
		S172.257,46.718,173.336,45.565z M173.769,53.449c0.968,1.032,2.132,1.549,3.492,1.549c1.36,0,2.528-0.517,3.504-1.549
		c0.976-1.031,1.464-2.275,1.464-3.731s-0.488-2.7-1.464-3.732c-0.976-1.031-2.144-1.548-3.504-1.548
		c-1.36,0-2.524,0.517-3.492,1.548c-0.968,1.032-1.452,2.276-1.452,3.732S172.8,52.418,173.769,53.449z"/>
</g>
<g id="Layer_3">
</g>
</svg>
