<?xml version="1.0" encoding="utf-8"?>
<!-- Generator: Adobe Illustrator 16.0.4, SVG Export Plug-In . SVG Version: 6.00 Build 0)  -->
<!DOCTYPE svg PUBLIC "-//W3C//DTD SVG 1.1//EN" "http://www.w3.org/Graphics/SVG/1.1/DTD/svg11.dtd">
<svg version="1.1" xmlns="http://www.w3.org/2000/svg" xmlns:xlink="http://www.w3.org/1999/xlink" x="0px" y="0px" width="96px"
	 height="32.333px" viewBox="0 0 96 32.333" enable-background="new 0 0 96 32.333" xml:space="preserve">
<g id="Layer_2">
</g>
<g id="Layer_1">
	<path d="M81.956,27.747c-0.592-0.571-0.888-1.262-0.888-2.069c0-0.809,0.296-1.5,0.888-2.076s1.274-0.864,2.046-0.864
		s1.426,0.212,1.962,0.636c0.063,0.064,0.069,0.135,0.018,0.21c-0.052,0.076-0.122,0.087-0.21,0.03
		c-0.496-0.385-1.09-0.576-1.782-0.576c-0.691,0-1.302,0.258-1.83,0.773c-0.528,0.517-0.792,1.139-0.792,1.867
		c0,0.728,0.264,1.35,0.792,1.865s1.172,0.774,1.932,0.774c0.607,0,1.168-0.196,1.68-0.589c0.072-0.047,0.138-0.033,0.198,0.043
		c0.06,0.076,0.058,0.146-0.006,0.209c-0.552,0.425-1.176,0.637-1.872,0.637C83.26,28.609,82.548,28.319,81.956,27.747z"/>
	<path fill="#CCCCCC" d="M88.204,26.449c-0.622,0.039-1.175,0.295-1.658,0.768c-0.218,0.214-0.392,0.445-0.52,0.694L85.84,27.85
		v-0.213c0.133-0.224,0.3-0.434,0.501-0.629c0.547-0.533,1.172-0.819,1.873-0.859l0.136,0.158L88.204,26.449z"/>
	<path fill="#CCCCCC" d="M88.351,24.943l-0.136,0.158c-0.701-0.04-1.326-0.326-1.873-0.859c-0.201-0.195-0.369-0.405-0.501-0.629
		V23.4l0.186-0.062c0.128,0.249,0.302,0.48,0.52,0.694c0.483,0.473,1.037,0.729,1.658,0.768L88.351,24.943z"/>
	
		<line fill="none" stroke="#7F7F7F" stroke-width="0.125" stroke-miterlimit="10" x1="72.253" y1="19.234" x2="76.268" y2="26.234"/>
	<circle opacity="0.2" cx="73.565" cy="27.183" r="0.364"/>
	<circle opacity="0.2" cx="74.765" cy="26.783" r="0.364"/>
	<circle opacity="0.2" cx="75.165" cy="27.183" r="0.364"/>
	<circle opacity="0.2" cx="74.365" cy="27.183" r="0.364"/>
	<circle opacity="0.2" cx="73.965" cy="26.783" r="0.364"/>
	<circle opacity="0.3" cx="74.365" cy="26.383" r="0.364"/>
	<circle opacity="0.2" cx="73.865" cy="20.783" r="0.455"/>
	<circle opacity="0.2" cx="74.865" cy="20.783" r="0.455"/>
	<circle opacity="0.3" cx="74.365" cy="21.283" r="0.455"/>
	<circle opacity="0.3" cx="74.263" cy="23.885" r="0.352"/>
	<circle opacity="0.2" cx="73.065" cy="27.683" r="0.364"/>
	<circle opacity="0.2" cx="74.665" cy="27.683" r="0.364"/>
	<circle opacity="0.2" cx="75.665" cy="27.683" r="0.364"/>
	<circle opacity="0.2" cx="73.865" cy="27.683" r="0.364"/>
	<path fill="none" stroke="#000000" d="M57.424,5.039c0.084-0.084,3.688-0.125,3.809-0.125c0.12,0,0.175,0.617,0.265,0.701
		s0.126,0.877,0.126,0.997L60.5,7.122v13.781l3.814,2.35c0.078,0,0.148-0.003,0.227-0.04c0.078-0.037,0.145-0.066,0.208-0.125
		s-0.116-0.106-0.076-0.183c0.039-0.075-0.173-0.134-0.173-0.212v-0.456l2,0.698v4.807c0,0.12-0.12,0.665-0.21,0.749
		s-4.488,0.126-4.608,0.126c-0.12,0-4.155-0.042-4.239-0.126s0.057-0.438,0.057-0.559v-1.847l1-0.917V8.418l-1-1.01V5.619
		C57.5,5.499,57.34,5.123,57.424,5.039z"/>
	<path d="M69.883,16.698c0.051-0.051,0.235-0.032,0.308-0.032h7.967c0.087,0,0.362-0.02,0.431,0.05
		c0.069,0.068,0.091,0.431,0.065,0.507s-0.063,0.408-0.114,0.437l-0.065,0.474l-6.521,8.548l0.894,0.985h2.812l0.609-1h1.434
		l0.659,0.736c0.072,0,0.134,0.131,0.185,0.182c0.051,0.051,0.076,0.38,0.076,0.452s-0.025,0.484-0.076,0.535
		s-0.25,0.095-0.322,0.095h-8.23c-0.174,0,0.008-0.882,0.008-1.056v-0.013c0-0.08-0.105-0.449-0.048-0.493l6.427-7.979l-1.062-0.46
		h-2.426l-0.639,1h-1.447l-0.738-1.41c-0.072,0-0.134-0.404-0.185-0.455s-0.076-0.479-0.076-0.551S69.832,16.749,69.883,16.698z"/>
	<path fill="none" stroke="#000000" d="M32.5,19.909v0.144c0,0.24-0.146,0.593-0.313,0.737c-0.168,0.143-0.433,0.376-0.672,0.376
		H17.042c0.096,2,0.804,3.368,2.124,4.663c1.32,1.297,2.892,1.864,4.716,1.864c1.175,0,2.268-0.329,3.276-0.904
		c1.008-0.576,1.812-1.375,2.412-2.359c0.288-0.48,0.672-0.586,1.152-0.299c0.479,0.336,0.576,0.739,0.288,1.219
		c-0.768,1.224-1.782,2.193-3.042,2.913s-2.623,1.08-4.086,1.08c-2.376,0-4.398-0.859-6.066-2.575
		c-1.668-1.716-2.502-3.793-2.502-6.229s0.833-4.519,2.502-6.246c1.668-1.729,3.659-2.592,5.976-2.592s4.339,0.786,5.947,2.357
		C31.347,15.631,32.5,17.581,32.5,19.909z"/>
	<path fill="none" stroke="#000000" d="M37.5,21.133V20.99c0-0.24-0.054-0.448,0.114-0.593c0.168-0.144,0.234-0.231,0.474-0.231
		h7.233h7.239c-0.096-2-0.804-3.513-2.124-4.809c-1.319-1.296-2.892-1.936-4.716-1.936c-1.176,0-2.269,0.292-3.276,0.867
		c-1.008,0.576-1.812,1.358-2.412,2.343c-0.288,0.48-0.671,0.577-1.152,0.288c-0.48-0.336-0.576-0.743-0.288-1.222
		c0.768-1.225,1.782-2.197,3.042-2.917c1.26-0.72,2.622-1.079,4.086-1.079c2.376,0,4.398,0.856,6.065,2.573
		c1.669,1.715,2.502,3.792,2.502,6.229c0,2.436-0.833,4.518-2.502,6.246c-1.667,1.728-3.659,2.592-5.976,2.592
		c-2.316,0-4.14-0.787-5.748-2.357C38.455,25.412,37.5,23.461,37.5,21.133z"/>
	<path d="M21.039,18.234c0,0.553-0.448,1-1,1l0,0c-0.552,0-1-0.447-1-1l0,0c0-0.553,0.448-1,1-1l0,0
		C20.591,17.234,21.039,17.682,21.039,18.234L21.039,18.234z"/>
	<path d="M27.539,18.234c0,0.553-0.448,1-1,1l0,0c-0.552,0-1-0.447-1-1l0,0c0-0.553,0.448-1,1-1l0,0
		C27.091,17.234,27.539,17.682,27.539,18.234L27.539,18.234z"/>
	<line fill="none" stroke="#000000" stroke-linecap="round" x1="42" y1="24.166" x2="49" y2="24.166"/>
	<path d="M43.039,18.234c0,0.553-0.448,1-1,1l0,0c-0.552,0-1-0.447-1-1l0,0c0-0.553,0.448-1,1-1l0,0
		C42.591,17.234,43.039,17.682,43.039,18.234L43.039,18.234z"/>
	<path d="M49.539,18.234c0,0.553-0.448,1-1,1l0,0c-0.552,0-1-0.447-1-1l0,0c0-0.553,0.448-1,1-1l0,0
		C49.091,17.234,49.539,17.682,49.539,18.234L49.539,18.234z"/>
	<path d="M21.954,4.177c0.24,0,0.444,0.09,0.612,0.271c0.167,0.18,0.252,0.39,0.252,0.63c0,0.239-0.084,0.444-0.252,0.611
		c-0.168,0.169-0.373,0.253-0.612,0.253c-1.104,0-9.297-4.832-14.055,0.737C7.474,7.177,7,8.125,7,9.541v2.125h6.486
		c0.24,0,0.45-0.042,0.63,0.126c0.18,0.168,0.27,0.308,0.27,0.548s-0.09,0.662-0.27,0.843c-0.18,0.181-0.39,0.483-0.63,0.483H7
		v7.179v7.668c0,0.24,0.167,0.444-0.001,0.612s-0.247,0.252-0.486,0.252c-0.24,0-0.256-0.084-0.436-0.252
		C5.896,28.957,6,28.753,6,28.513v-7.668v-7.179H3.398c-0.24,0-0.444-0.335-0.612-0.515s-0.252-0.513-0.252-0.753
		c0-0.238,0.084-0.378,0.252-0.546s0.372-0.187,0.612-0.187H6V9.541c0-1.872,0.323-3.223,1.021-4.104
		C12.082-0.953,20.346,4.177,21.954,4.177z"/>
	<line opacity="0.2" fill="none" stroke="#000000" stroke-miterlimit="10" x1="60" y1="10.166" x2="59" y2="10.166"/>
	<line opacity="0.2" fill="none" stroke="#000000" stroke-miterlimit="10" x1="60" y1="12.166" x2="59" y2="12.166"/>
	<line opacity="0.2" fill="none" stroke="#000000" stroke-miterlimit="10" x1="60" y1="14.166" x2="59" y2="14.166"/>
	<line opacity="0.2" fill="none" stroke="#000000" stroke-miterlimit="10" x1="60" y1="16.166" x2="59" y2="16.166"/>
	<line opacity="0.2" fill="none" stroke="#000000" stroke-miterlimit="10" x1="60" y1="18.166" x2="59" y2="18.166"/>
	<line opacity="0.2" fill="none" stroke="#000000" stroke-miterlimit="10" x1="60" y1="20.166" x2="59" y2="20.166"/>
	<line opacity="0.2" fill="none" stroke="#000000" stroke-miterlimit="10" x1="61" y1="22.166" x2="59" y2="22.166"/>
	<polyline opacity="0.2" fill="none" stroke="#000000" stroke-miterlimit="10" points="60,24.166 59.039,24.166 64,24.166 	"/>
	<polyline opacity="0.2" fill="none" stroke="#000000" stroke-miterlimit="10" points="60,26.166 59.039,26.166 64,26.166 	"/>
	<path d="M88.874,23.602c0.54-0.576,1.194-0.864,1.962-0.864c0.768,0,1.424,0.288,1.968,0.864s0.816,1.268,0.816,2.076
		c0,0.808-0.272,1.5-0.816,2.076c-0.544,0.575-1.2,0.863-1.968,0.863c-0.769,0-1.422-0.288-1.962-0.863
		c-0.54-0.576-0.81-1.269-0.81-2.076C88.063,24.869,88.334,24.178,88.874,23.602z M89.09,27.543
		c0.483,0.516,1.065,0.774,1.746,0.774c0.68,0,1.264-0.259,1.752-0.774c0.487-0.516,0.731-1.138,0.731-1.865
		c0-0.729-0.244-1.351-0.731-1.867c-0.488-0.516-1.072-0.773-1.752-0.773c-0.681,0-1.263,0.258-1.746,0.773
		c-0.484,0.517-0.727,1.139-0.727,1.867C88.363,26.405,88.605,27.027,89.09,27.543z"/>
</g>
<g id="Layer_3">
</g>
</svg>
